<?xml version="1.0" encoding="UTF-8" standalone="no"?>
<!-- Created with Inkscape (http://www.inkscape.org/) -->

<svg
   xmlns:dc="http://purl.org/dc/elements/1.1/"
   xmlns:cc="http://creativecommons.org/ns#"
   xmlns:rdf="http://www.w3.org/1999/02/22-rdf-syntax-ns#"
   xmlns:svg="http://www.w3.org/2000/svg"
   xmlns="http://www.w3.org/2000/svg"
   xmlns:sodipodi="http://sodipodi.sourceforge.net/DTD/sodipodi-0.dtd"
   xmlns:inkscape="http://www.inkscape.org/namespaces/inkscape"
   width="75.145203mm"
   height="70.242241mm"
   viewBox="0 0 150.29041 140.48448"
   version="1.1"
   id="svg8"
   inkscape:version="0.92.2 5c3e80d, 2017-08-06"
   sodipodi:docname="logo2.svg">
  <defs
     id="defs2">
    <inkscape:path-effect
       effect="envelope"
       id="path-effect1024"
       is_visible="true"
       yy="true"
       xx="false"
       bendpath1="m 51.552481,132.88912 c 30.578401,-48.122236 65.168169,-66.589097 111.263119,0"
       bendpath2="m 156.1845,113.57124 6.6311,46.62872"
       bendpath3="m 51.552481,160.19996 c 31.832457,52.3255 66.842559,64.07482 111.263119,0"
       bendpath4="m 51.552481,132.88912 v 27.31084"
       bendpath1-nodetypes="cc"
       bendpath3-nodetypes="cc"
       bendpath2-nodetypes="cc" />
  </defs>
  <sodipodi:namedview
     id="base"
     pagecolor="#ffffff"
     bordercolor="#666666"
     borderopacity="1.0"
     inkscape:pageopacity="0.0"
     inkscape:pageshadow="2"
     inkscape:zoom="7.9195959"
     inkscape:cx="34.749122"
     inkscape:cy="238.73392"
     inkscape:document-units="mm"
     inkscape:current-layer="layer1"
     showgrid="false"
     inkscape:window-width="1680"
     inkscape:window-height="1005"
     inkscape:window-x="0"
     inkscape:window-y="1"
     inkscape:window-maximized="1"
     fit-margin-top="0"
     fit-margin-left="0"
     fit-margin-right="0"
     fit-margin-bottom="0"
     scale-x="2" />
  <metadata
     id="metadata5">
    <rdf:RDF>
      <cc:Work
         rdf:about="">
        <dc:format>image/svg+xml</dc:format>
        <dc:type
           rdf:resource="http://purl.org/dc/dcmitype/StillImage" />
        <dc:title></dc:title>
      </cc:Work>
    </rdf:RDF>
  </metadata>
  <g
     inkscape:label="Layer 1"
     inkscape:groupmode="layer"
     id="layer1"
     transform="translate(-25.225053,-72.17988)">
    <path
       inkscape:connector-curvature="0"
       id="path833"
       d="m 85.751348,213.8205 c -22.058619,-4.19512 -40.532497,-15.90801 -52.232467,-33.11666 -3.751813,-5.51828 -8.235908,-15.42915 -10.007439,-22.11872 -2.313881,-8.73757 -2.340924,-23.21647 -0.06054,-32.41297 10.36225,-41.789695 56.004605,-66.36121 99.730648,-53.689897 21.46097,6.219148 38.98479,20.957201 48.11781,40.468517 4.4661,9.54116 5.80099,15.15202 6.28399,26.41306 0.30972,7.22117 0.10295,11.00877 -0.86059,15.76407 -5.54152,27.3485 -27.5773,49.79071 -56.21956,57.25644 -9.16083,2.38782 -26.072922,3.08672 -34.751848,1.43616 z"
       style="fill:#b3b3b3;fill-opacity:0.59523806;stroke-width:0.75595242" />
    <path
       style="fill:#ff4080;fill-opacity:0.96190479;stroke-width:0.75595242"
       d="m 85.751348,213.8205 c -22.058619,-4.19512 -40.532497,-15.90801 -52.232467,-33.11666 -3.751813,-5.51828 -8.235908,-15.42915 -10.007439,-22.11872 -2.313881,-8.73757 -2.340924,-23.21647 -0.06054,-32.41297 10.36225,-41.789695 56.004605,-66.36121 99.730648,-53.689897 21.46097,6.219148 38.98479,20.957201 48.11781,40.468517 4.4661,9.54116 5.80099,15.15202 6.28399,26.41306 0.30972,7.22117 0.10295,11.00877 -0.86059,15.76407 -5.54152,27.3485 -27.5773,49.79071 -56.21956,57.25644 -9.16083,2.38782 -26.072922,3.08672 -34.751848,1.43616 z"
       id="path12"
       inkscape:connector-curvature="0" />
    <path
       style="fill:#ff4080;fill-opacity:0;stroke-width:2.85714293"
       d="M 358.3853,870.99766 C 326.38276,864.9114 298.95139,855.76977 271.8544,842.16086 135.8713,773.86603 78.657,619.98983 140.75822,489.58147 202.66596,359.57938 354.47075,294.99444 499.94511,336.76637 c 62.69392,18.00211 124.9224,62.14519 160.49806,113.85262 12.53854,18.22414 30.47154,56.52341 37.54597,80.18641 8.63146,28.8711 10.651,86.61637 4.15497,118.804 -20.75474,102.83914 -104.30071,187.7802 -212.41322,215.96023 -34.6236,9.02483 -98.54335,11.66637 -131.34559,5.42803 z"
       id="path14"
       inkscape:connector-curvature="0"
       transform="scale(0.26458333)" />
    <path
       style="fill:#ff4094;fill-opacity:1;stroke-width:2.46592093"
       d="m 369.11523,298.48633 c -108.27406,-1.34383 -207.27552,78.97289 -233.19531,200.88672 -6.56271,30.86773 -6.79338,78.61505 -0.75586,109.67968 44.34646,55.75625 109.00358,93.74085 184.89453,108.17383 32.80224,6.23834 96.7221,3.5971 131.34571,-5.42773 55.11485,-14.36593 103.75,-43.41015 140.98828,-82.09766 2.63743,-9.24588 4.81584,-18.69589 6.48828,-28.32226 2.9105,-16.75197 3.53512,-30.09645 2.59961,-55.53516 -1.45894,-39.67034 -5.4925,-59.43531 -18.98242,-93.04687 -27.58643,-68.73446 -80.5166,-120.65369 -145.33985,-142.5625 -22.70045,-7.67225 -45.57099,-11.46914 -68.04297,-11.74805 z"
       transform="scale(0.26458333)"
       id="path821"
       inkscape:connector-curvature="0" />
    <path
       style="fill:#ff8dc3;fill-opacity:1;stroke-width:0.5065366"
       d="m 89.393604,195.10877 c -13.672699,-3.0388 -25.123452,-11.52319 -32.3755,-23.98851 -2.325504,-3.99725 -5.104902,-11.17632 -6.202959,-16.022 -1.434224,-6.32918 -1.450986,-16.81719 -0.03753,-23.47879 6.422884,-30.27095 34.713603,-48.069667 61.816535,-38.891026 13.30226,4.504927 24.16414,15.180636 29.8251,29.313936 2.76824,6.91127 3.59564,10.97558 3.89503,19.13266 0.19197,5.23075 0.0638,7.97436 -0.53343,11.41893 -3.43482,19.81027 -17.09337,36.06658 -34.84684,41.4745 -5.6782,1.72965 -16.160908,2.2359 -21.540409,1.0403 z"
       id="path823"
       inkscape:connector-curvature="0" />
    <path
       inkscape:connector-curvature="0"
       id="path825"
       d="m 93.771341,165.19806 c -7.364355,-1.5139 -13.53193,-5.74075 -17.43801,-11.95086 -1.252557,-1.99138 -2.749589,-5.56793 -3.341022,-7.982 -0.772498,-3.15314 -0.781526,-8.37817 -0.02021,-11.69691 3.459477,-15.0807 18.697353,-23.94786 33.295471,-19.37514 7.16483,2.24431 13.01522,7.56285 16.06432,14.60392 1.49101,3.44313 1.93666,5.46793 2.09792,9.53171 0.1034,2.60591 0.0344,3.97275 -0.28731,5.68881 -1.85005,9.86928 -9.20679,17.96802 -18.76911,20.66219 -3.05838,0.8617 -8.704554,1.11391 -11.602047,0.51828 z"
       style="fill:#ffb2c3;fill-opacity:1;stroke-width:0.26239091" />
    <path
       style="fill:#ffcec3;fill-opacity:1;stroke-width:0.17516005"
       d="m 94.829677,157.26051 c -4.905169,-1.01286 -9.013201,-3.8408 -11.61492,-7.99562 -0.83429,-1.33232 -1.831417,-3.72518 -2.225352,-5.34029 -0.514537,-2.10959 -0.520551,-5.60535 -0.01346,-7.82573 2.30425,-10.08961 12.45373,-16.02211 22.177095,-12.96277 4.77227,1.50153 8.66903,5.05986 10.69994,9.77063 0.99312,2.3036 1.28995,3.65827 1.39736,6.37711 0.0689,1.74346 0.0229,2.65794 -0.19137,3.80605 -1.23226,6.60296 -6.13236,12.02136 -12.50152,13.82387 -2.0371,0.57651 -5.79784,0.74525 -7.72777,0.34675 z"
       id="path827"
       inkscape:connector-curvature="0" />
    <path
       inkscape:connector-curvature="0"
       id="path829"
       d="m 96.472313,148.44789 c -2.552906,-0.51182 -4.69094,-1.94085 -6.04501,-4.04038 -0.434209,-0.67326 -0.953165,-1.88243 -1.15819,-2.69859 -0.267792,-1.06602 -0.270922,-2.83252 -0.007,-3.95453 1.199252,-5.09853 6.481571,-8.09637 11.542117,-6.55041 2.48376,0.75876 4.51185,2.55687 5.56884,4.93734 0.51688,1.16407 0.67136,1.84861 0.72727,3.22251 0.0359,0.88102 0.0119,1.34313 -0.0996,1.92329 -0.64134,3.33664 -3.19162,6.0747 -6.50649,6.98555 -1.060209,0.29132 -3.017495,0.37659 -4.021931,0.17522 z"
       style="fill:#fff2c3;fill-opacity:1;stroke-width:0.08982782" />
    <g
       aria-label="Bristol"
       transform="matrix(1.3703859,0,0,1.2728514,-46.480104,-46.102727)"
       style="font-style:normal;font-variant:normal;font-weight:normal;font-stretch:normal;font-size:35.96951294px;line-height:1.25;font-family:'.Al Tarikh PUA';-inkscape-font-specification:'.Al Tarikh PUA';letter-spacing:0px;word-spacing:0px;opacity:0.66799999;fill:#000000;fill-opacity:1;stroke:none;stroke-width:0.89923781"
       id="text1007"
       inkscape:path-effect="#path-effect1024">
      <path
         d="m 52.324792,159.66746 c 2.466528,3.92064 5.036391,7.80018 7.771953,11.55445 3.593375,4.93151 10.761345,3.1602 14.130843,-8.51929 2.814188,-9.75467 -0.180526,-14.32171 -1.667745,-14.74284 0.0066,-0.18371 0.01183,-0.36744 0.01573,-0.55117 1.491357,-0.78403 3.509193,-4.97094 1.805359,-12.52894 -2.148208,-9.52917 -7.555896,-11.94127 -10.884792,-8.20559 -2.653821,2.97811 -5.181414,6.05016 -7.640485,9.15553 10.737906,8.06239 9.560954,16.00834 -3.530858,23.83785 z m 11.963457,-22.74439 c 0.803814,-0.60936 1.615084,-1.21451 2.435791,-1.8142 1.4506,-1.05996 3.214884,0.39907 4.002774,3.84369 0.807591,3.53074 -0.06798,5.75242 -1.863825,5.95571 -0.651692,0.0738 -1.298467,0.14796 -1.94141,0.22249 -0.238228,-2.73031 -1.116004,-5.4662 -2.63333,-8.20769 z m 2.249318,13.69497 c 0.84709,0.27643 1.701318,0.55061 2.565184,0.82176 1.685896,0.52916 2.491436,3.28765 1.095665,7.40225 -1.40857,4.15233 -3.744883,5.6236 -6.025381,3.31389 -0.747808,-0.75739 -1.486111,-1.52122 -2.216422,-2.29004 2.350569,-3.07542 3.877554,-6.15804 4.580954,-9.24786 z"
         style="font-style:normal;font-variant:normal;font-weight:bold;font-stretch:normal;font-family:'.SF Compact Text';-inkscape-font-specification:'.SF Compact Text Bold';stroke-width:0.89923781"
         id="path1009"
         inkscape:original-d="m 51.552481,159.84869 h 10.783828 c 4.671822,0 8.324976,-2.44129 8.324976,-6.79697 0,-3.7761 -2.739866,-5.60267 -5.409478,-5.79587 v -0.26345 c 2.318348,-0.45664 4.267867,-2.17784 4.267867,-5.23384 0,-3.68828 -2.950624,-5.88369 -7.358997,-5.88369 H 51.552481 Z m 5.708052,-19.84646 h 3.442395 c 2.019773,0 3.178946,1.08892 3.178946,2.75743 0,1.70364 -1.14161,2.84525 -3.811222,2.84525 h -2.810119 z m 0,9.36121 h 3.705844 c 2.546669,0 3.846349,1.26455 3.846349,3.19651 0,1.94952 -1.282116,3.16138 -4.425936,3.16138 h -3.126257 z"
         inkscape:connector-curvature="0" />
      <path
         d="m 70.316394,183.58017 c 1.709774,1.7914 3.487354,3.51934 5.342247,5.171 4.410062,-10.73191 7.140831,-21.4693 8.192306,-32.21215 0.07943,-0.81148 0.157993,-1.59481 0.237029,-2.34263 0.330046,-3.12894 0.674783,-5.71971 1.189136,-7.6243 0.563741,-2.11256 1.347658,-3.42882 2.478499,-3.51631 0.684132,-0.0529 1.386576,0.13932 1.717647,0.62412 -0.102689,-5.72193 -0.534322,-11.44435 -1.294899,-17.16727 -0.356476,-0.26464 -0.864875,-0.33185 -1.550996,-0.0589 -1.359036,0.54062 -1.960331,3.1762 -2.245572,5.94686 -0.211598,2.01423 -0.27377,4.33646 -0.258192,6.04317 -0.018,0.004 -0.036,0.007 -0.054,0.0106 -0.0555,0.0112 -0.110934,0.0224 -0.166304,0.0336 -0.244719,-3.14363 -0.634358,-6.28774 -1.168917,-9.43233 -1.597365,0.67652 -3.141143,1.38052 -4.639889,2.10758 3.658231,17.50331 1.065532,34.97563 -7.778095,52.41696 z"
         style="font-style:normal;font-variant:normal;font-weight:bold;font-stretch:normal;font-family:'.SF Compact Text';-inkscape-font-specification:'.SF Compact Text Bold';stroke-width:0.89923781"
         id="path1011"
         inkscape:original-d="m 74.771082,159.84869 h 5.760742 v -10.11642 c 0,-2.51154 1.29968,-4.14493 4.180051,-4.14493 0.825472,0 1.668508,0.0703 2.054899,0.21076 v -4.81232 c -0.351265,-0.10538 -0.895725,-0.17564 -1.686071,-0.17564 -2.722302,0 -4.109798,1.96709 -4.443499,3.2492 h -0.263449 v -2.96819 h -5.602673 z"
         inkscape:connector-curvature="0" />
      <path
         d="m 86.049327,196.40803 c 0.710788,0.41122 1.431454,0.80501 2.1622,1.17966 0.410272,0.21056 0.823708,0.415 1.240339,0.61303 1.020175,0.48496 2.060302,0.92988 3.116678,1.33036 4.408146,-25.0326 5.71818,-50.05856 3.930099,-75.07786 -0.77879,0.17377 -1.556235,0.36648 -2.329141,0.57599 -0.318341,0.0845 -0.635964,0.17067 -0.952739,0.25848 -0.568012,0.15867 -1.132991,0.325 -1.695195,0.49837 2.526315,23.54294 0.702235,47.08359 -5.472241,70.62197 z m 1.686065,-90.49844 c 1.165809,5.3128 2.741249,8.77104 4.28947,9.31692 0,0 10e-7,0 10e-7,0 0.293393,0.10471 0.589749,0.10791 0.887669,2.4e-4 0.05981,-0.0216 0.118467,-0.0471 0.17597,-0.0764 0,0 0,0 0,0 1.713184,-0.8835 2.592692,-5.66916 1.691889,-12.32845 -0.898864,-6.644971 -3.168384,-10.643901 -5.591088,-9.777232 0,0 0,0 0,0 -0.07497,0.02683 -0.149701,0.05853 -0.224131,0.09516 -0.371692,0.182913 -0.696961,0.467605 -0.972969,0.840363 0,0 -10e-7,10e-7 -10e-7,10e-7 -1.536025,2.074528 -1.448459,6.49887 -0.25681,11.92942 z"
         style="font-style:normal;font-variant:normal;font-weight:bold;font-stretch:normal;font-family:'.SF Compact Text';-inkscape-font-specification:'.SF Compact Text Bold';stroke-width:0.89923781"
         id="path1013"
         inkscape:original-d="m 90.525308,159.84869 h 5.602673 v -18.75754 h -5.602673 z m -0.54446,-24.11432 c 0,1.70363 1.352369,2.82768 3.337015,2.82768 2.019773,0 3.337016,-1.12405 3.337016,-2.82768 0,-1.70364 -1.334806,-2.84525 -3.337016,-2.84525 -2.002209,0 -3.337015,1.12405 -3.337015,2.84525 z"
         inkscape:connector-curvature="0" />
      <path
         d="m 101.09814,147.00811 c -0.0198,8.85984 0.50149,14.35319 1.63146,18.18506 0.23816,0.81113 0.50154,1.53065 0.78758,2.17116 0.65437,1.47869 1.43287,2.53113 2.29083,3.30871 2.11337,1.81816 4.24568,2.12945 4.57665,8.72925 0.22037,4.39434 -0.36895,8.11977 -2.47883,8.29579 -1.9236,0.16048 -2.87112,-3.43636 -2.96136,-8.19749 -0.56141,-0.005 -1.1194,-0.0253 -1.67255,-0.0611 -0.31298,-0.0176 -0.62557,-0.0403 -0.93756,-0.0679 -0.86706,-0.0826 -1.73919,-0.19998 -2.612459,-0.34923 -0.501847,7.92343 -0.190126,14.71342 1.764599,19.24533 0.32865,0.76226 0.70165,1.45175 1.11948,2.0598 1.39145,2.02722 3.28314,3.1354 5.49476,2.94951 3.01159,-0.25313 5.2341,-2.62016 6.49425,-6.29747 0.31747,-0.92401 0.57686,-1.93067 0.78231,-3.01348 0.92162,-4.8343 0.75246,-11.01143 0.0751,-18.31709 -0.6844,-7.38165 -1.5701,-12.36339 -2.7664,-15.75198 -0.27671,-0.79352 -0.56982,-1.49745 -0.87997,-2.12024 -0.7177,-1.46346 -1.52911,-2.48084 -2.43044,-3.15896 -1.69401,-1.33394 -4.10596,-2.13678 -4.09573,-9.38432 0.007,-4.63016 0.72488,-7.80545 2.09248,-7.78282 1.39835,0.0231 2.05578,4.08196 2.13011,8.13757 0.72572,-0.001 1.45277,-0.002 2.17618,-0.002 0.26523,-5.2e-4 0.53067,8e-5 0.7962,0.002 0.37074,0.002 0.74243,0.005 1.11502,0.007 0.0269,-5.82076 -0.20021,-10.56575 -0.783,-14.31037 -0.19078,-1.24651 -0.41995,-2.37453 -0.68947,-3.38337 -0.984,-3.74349 -2.54425,-5.83126 -4.46554,-5.92857 -1.54533,-0.0783 -2.9888,1.06366 -4.07592,3.63186 -0.28832,0.68231 -0.55303,1.46112 -0.79224,2.34162 -1.13488,4.13185 -1.66583,10.23039 -1.68556,19.06152 z"
         style="font-style:normal;font-variant:normal;font-weight:bold;font-stretch:normal;font-family:'.SF Compact Text';-inkscape-font-specification:'.SF Compact Text Bold';stroke-width:0.89923781"
         id="path1015"
         inkscape:original-d="m 100.81737,146.72895 c 0,3.65316 2.65204,5.00553 5.93637,5.65537 2.33591,0.43908 4.61913,0.57958 4.61913,2.17784 0,1.07136 -0.80791,1.91439 -2.7223,1.91439 -1.73876,0 -2.68718,-0.84303 -2.81012,-1.98464 h -5.42704 c 0,3.33701 2.82768,5.70805 7.97371,5.70805 5.37435,0 8.39523,-2.40617 8.39523,-6.28764 0,-3.30189 -2.24809,-4.7772 -5.70805,-5.33923 -1.96709,-0.3337 -4.9704,-0.54446 -4.9704,-2.26565 0,-1.10649 0.89573,-1.86171 2.52911,-1.86171 1.6685,0 2.5291,0.96598 2.63448,1.94952 h 4.88258 c 0,-3.7234 -3.12625,-5.65536 -7.44681,-5.65536 -4.19761,0 -7.88589,1.66851 -7.88589,5.98906 z"
         inkscape:connector-curvature="0" />
      <path
         d="m 119.94766,126.68741 c -0.91128,-0.24267 -1.82289,-0.47024 -2.73413,-0.67978 -0.46858,5.53132 -0.752,11.06188 -0.85027,16.59166 0.82806,0.0364 1.65974,0.0757 2.4945,0.11718 -0.23464,11.19098 0.46439,22.37851 2.0971,33.5626 1.7552,12.02323 4.80322,17.29492 8.55951,16.86791 0.36121,-0.0408 0.7287,-0.13337 1.10217,-0.27597 0.54765,-0.2092 1.10775,-0.5248 1.6797,-0.94106 1.38867,-1.01069 2.55791,-2.45341 2.87746,-3.07341 -1.62239,-4.40449 -2.98996,-8.80945 -4.10271,-13.21488 -0.29889,0.30627 -0.87992,0.77874 -1.53229,1.1465 -1.60799,0.90646 -2.95798,-0.58051 -3.90371,-6.33659 -1.50382,-9.15285 -2.13311,-18.30798 -1.88789,-27.46539 1.23923,0.0712 2.45274,0.14697 3.64335,0.22673 0.14284,-4.60683 0.56241,-9.21419 1.25873,-13.82206 -1.22069,-0.43319 -2.46613,-0.84939 -3.73915,-1.24656 0.70127,-5.39778 1.70621,-10.79636 3.01485,-16.19572 -0.11512,-0.0637 -0.23046,-0.12708 -0.34604,-0.19024 -0.30308,-0.16768 -0.60741,-0.33355 -0.91299,-0.49759 -1.37207,-0.73681 -2.76529,-1.43184 -4.17751,-2.07069 -1.10238,5.83339 -1.94927,11.66584 -2.54068,17.49736 z"
         style="font-style:normal;font-variant:normal;font-weight:bold;font-stretch:normal;font-family:'.SF Compact Text';-inkscape-font-specification:'.SF Compact Text Bold';stroke-width:0.89923781"
         id="path1017"
         inkscape:original-d="m 122.31477,141.37217 h -2.98575 v 4.2503 h 2.86281 v 8.887 c 0,3.9166 1.91439,5.39191 6.70915,5.39191 1.31725,0 2.61693,-0.12294 3.03844,-0.21076 v -4.07467 c -0.35126,0.0351 -1.0011,0.0703 -1.68607,0.0703 -1.72119,0 -2.5291,-0.56203 -2.5291,-2.19541 v -7.86833 h 4.1098 v -4.2503 h -4.1098 v -4.6367 h -5.40948 z"
         inkscape:connector-curvature="0" />
      <path
         d="m 139.30405,132.0897 c -2.2062,-1.15521 -4.67646,0.22591 -6.54667,4.45464 -1.83468,4.1484 -2.96992,10.94208 -2.21618,19.06959 0.1489,1.60559 0.33822,3.21112 0.56794,4.8166 1.2672,8.85613 4.16404,15.28597 7.27797,18.54019 3.16154,3.30398 6.421,3.3126 8.86957,0.63467 5.62657,-6.15364 1.04783,-15.02597 -1.87949,-25.00207 -0.27847,-0.94899 -0.50748,-1.89798 -0.68702,-2.84696 -1.59349,-8.42221 -0.84403,-17.28833 -5.38612,-19.66666 z m -1.76588,10.33699 c 1.73534,0.26133 2.05578,5.45524 2.81736,10.62775 0.18653,1.26693 0.42821,2.53383 0.72504,3.80072 1.1466,4.89386 2.90827,10.79687 0.93305,12.37415 -2.13736,1.70676 -4.98719,-4.03305 -6.10601,-10.20245 -0.27782,-1.53199 -0.50394,-3.06402 -0.67834,-4.5961 -0.75864,-6.66433 0.45944,-12.28258 2.3089,-12.00407 z"
         style="font-style:normal;font-variant:normal;font-weight:bold;font-stretch:normal;font-family:'.SF Compact Text';-inkscape-font-specification:'.SF Compact Text Bold';stroke-width:0.89923781"
         id="path1019"
         inkscape:original-d="m 144.00537,140.73989 c -5.46217,0 -8.90457,3.5829 -8.90457,8.887 v 1.58069 c 0,5.77831 3.42484,8.99238 8.90457,8.99238 5.4446,0 8.887,-3.23164 8.887,-9.00994 v -1.59826 c 0,-5.35679 -3.4424,-8.85187 -8.887,-8.85187 z m 0,4.23274 c 2.30078,0 3.21407,2.19541 3.21407,4.6367 v 1.72119 c 0,2.31835 -0.82547,4.61913 -3.21407,4.61913 -2.3886,0 -3.2492,-2.33591 -3.2492,-4.61913 v -1.72119 c 0,-2.42373 0.94841,-4.6367 3.2492,-4.6367 z"
         inkscape:connector-curvature="0" />
      <path
         d="m 157.69749,165.60712 c 1.46135,-1.92885 2.89147,-3.87856 4.29744,-5.83751 -13.33949,-8.45189 -13.89855,-16.89933 -1.67718,-25.34234 -1.39338,-1.78614 -2.80762,-3.56475 -4.24991,-5.32457 -12.04477,12.16587 -11.50155,24.33401 1.62965,36.50442 z"
         style="font-style:normal;font-variant:normal;font-weight:bold;font-stretch:normal;font-family:'.SF Compact Text';-inkscape-font-specification:'.SF Compact Text Bold';stroke-width:0.89923781"
         id="path1021"
         inkscape:original-d="m 157.21292,159.84869 h 5.60268 v -25.23837 h -5.60268 z"
         inkscape:connector-curvature="0" />
    </g>
  </g>
</svg>
